<?xml version="1.0" standalone="no"?><!-- Generator: Gravit.io --><svg xmlns="http://www.w3.org/2000/svg" xmlns:xlink="http://www.w3.org/1999/xlink" style="isolation:isolate" viewBox="0 0 560 315" width="560" height="315"><defs><clipPath id="_clipPath_0GpRUqmS9NS7IEhco7X9qnc8oJxLufPE"><rect width="560" height="315"/></clipPath></defs><g clip-path="url(#_clipPath_0GpRUqmS9NS7IEhco7X9qnc8oJxLufPE)"><g style="isolation:isolate"><g><g><g><path d=" M 260.445 180.957 C 246.702 179.973 235.529 177.021 226.725 172.015 C 220.491 168.458 216.299 164.729 213.455 160.189 C 212.052 157.962 210.138 153.853 209.445 151.626 C 207.768 146.17 207.386 144.081 206.857 137.383 C 206.602 134.189 206.602 133.464 206.857 129.7 C 207.44 121.206 208.479 114.473 210.411 106.566 C 210.976 104.236 213.127 96.76 213.711 95.051 C 213.984 94.222 214.276 93.135 214.349 92.634 C 214.403 92.133 214.567 91.546 214.713 91.357 C 214.841 91.149 215.078 90.493 215.242 89.889 C 215.406 89.285 215.734 88.197 215.971 87.489 C 216.208 86.782 216.827 84.641 217.338 82.742 C 217.848 80.843 218.468 78.823 218.705 78.253 C 218.96 77.683 219.47 76.13 219.871 74.8 C 220.272 73.471 220.929 71.468 221.348 70.346 C 221.749 69.241 222.077 68.24 222.077 68.136 C 222.077 68.033 222.35 67.273 222.697 66.444 C 223.043 65.633 223.736 63.803 224.264 62.37 C 229.532 47.954 235.62 39.029 244.423 32.745 C 251.076 28.014 260.536 24.493 270.926 22.922 C 271.673 22.801 272.53 22.576 272.803 22.421 C 273.186 22.214 273.35 22.196 273.441 22.352 C 273.55 22.507 274.188 22.49 276.12 22.283 C 279.748 21.903 288.661 21.903 292.488 22.3 C 296.28 22.68 300.344 23.336 303.37 24.061 C 305.977 24.682 309.112 25.563 310.06 25.96 C 310.369 26.098 310.734 26.202 310.88 26.202 C 311.117 26.202 312.867 26.72 314.124 27.151 C 316.603 28.032 321.47 30.397 321.98 30.967 C 322.089 31.105 322.29 31.208 322.418 31.208 C 322.545 31.208 322.983 31.467 323.402 31.778 C 323.803 32.071 324.769 32.762 325.553 33.28 C 327.631 34.678 329.636 36.457 331.312 38.407 C 333.19 40.583 333.445 40.911 333.445 41.101 C 333.445 41.204 333.591 41.429 333.755 41.601 C 334.156 42.033 334.776 42.982 335.359 44.07 C 335.614 44.553 335.887 45.054 335.979 45.192 C 336.07 45.33 336.307 45.796 336.507 46.228 C 336.708 46.66 336.999 47.298 337.163 47.644 C 337.327 47.989 337.51 48.524 337.583 48.852 C 337.637 49.163 337.801 49.577 337.947 49.767 C 338.075 49.957 338.184 50.302 338.184 50.544 C 338.184 50.786 338.312 51.114 338.439 51.286 C 338.585 51.459 338.877 52.357 339.095 53.272 C 339.296 54.187 339.606 55.292 339.752 55.723 C 339.916 56.155 340.116 56.966 340.189 57.536 C 340.28 58.106 340.481 59.193 340.645 59.953 C 340.809 60.713 340.973 61.921 340.991 62.629 C 341.028 63.354 341.155 64.131 341.283 64.355 C 341.41 64.58 341.556 65.547 341.593 66.496 C 341.647 67.463 341.83 68.982 342.03 69.914 C 342.212 70.829 342.376 71.883 342.376 72.28 C 342.376 72.659 342.486 73.316 342.632 73.713 C 342.777 74.127 342.941 75.007 342.978 75.681 C 343.033 76.406 343.233 77.252 343.452 77.735 C 343.725 78.305 343.835 78.875 343.816 79.531 C 343.798 80.1 343.907 80.774 344.09 81.171 C 344.254 81.533 344.381 82.034 344.381 82.293 C 344.381 82.535 344.545 83.242 344.764 83.864 C 344.965 84.468 345.11 85.141 345.074 85.349 C 345.038 85.556 345.11 85.901 345.22 86.125 C 345.584 86.885 345.84 87.766 345.84 88.335 C 345.84 88.629 345.967 89.112 346.113 89.406 C 346.277 89.682 346.441 90.303 346.496 90.77 C 346.532 91.218 346.696 91.823 346.842 92.099 C 346.988 92.358 347.115 92.738 347.115 92.928 C 347.115 93.117 347.261 93.618 347.425 94.05 C 347.589 94.481 347.772 95.224 347.863 95.69 C 347.936 96.173 348.136 96.898 348.3 97.33 C 348.482 97.762 348.628 98.418 348.646 98.797 C 348.665 99.177 348.792 99.661 348.902 99.868 C 349.029 100.092 349.248 100.817 349.376 101.508 C 349.521 102.198 349.758 103.234 349.904 103.804 C 350.487 105.945 350.761 107.326 350.761 107.965 C 350.761 108.344 350.87 108.828 350.998 109.07 C 351.144 109.311 351.308 110.278 351.362 111.21 C 351.435 112.315 351.581 113.075 351.763 113.334 C 351.964 113.627 352.073 114.283 352.128 115.457 C 352.164 116.39 352.292 117.339 352.42 117.563 C 352.584 117.84 352.675 119.117 352.711 121.569 C 352.766 124.331 352.839 125.315 353.039 125.695 C 353.404 126.385 353.44 133.395 353.094 133.723 C 352.93 133.878 352.821 135.052 352.729 137.693 C 352.62 141.267 352.529 142.079 352.201 142.493 C 352.11 142.579 352.055 143.201 352.073 143.874 C 352.11 144.806 352.019 145.221 351.709 145.79 C 351.472 146.222 351.308 146.826 351.308 147.275 C 351.308 148 350.779 149.778 350.305 150.676 C 350.178 150.918 350.032 151.349 349.977 151.643 C 349.922 151.954 349.613 152.558 349.303 153.024 C 349.011 153.473 348.756 153.956 348.756 154.077 C 348.756 154.198 348.428 154.94 348.027 155.7 C 347.626 156.477 347.298 157.202 347.298 157.323 C 347.298 157.426 347.115 157.668 346.915 157.858 C 346.696 158.031 346.241 158.618 345.876 159.136 C 345.256 160.033 344.965 160.482 344.108 161.898 C 343.743 162.485 341.538 164.781 339.642 166.525 C 337.4 168.614 336.781 169.114 336.216 169.39 C 335.887 169.546 335.578 169.787 335.523 169.908 C 335.468 170.029 334.976 170.357 334.411 170.616 C 333.864 170.892 333.372 171.203 333.317 171.324 C 333.281 171.445 333.008 171.6 332.716 171.652 C 332.443 171.704 331.877 172.032 331.476 172.36 C 331.075 172.671 330.674 172.947 330.565 172.947 C 330.292 172.947 326.81 174.535 326.555 174.777 C 326.428 174.898 325.935 175.053 325.461 175.122 C 324.988 175.191 324.441 175.347 324.24 175.467 C 324.04 175.605 323.693 175.709 323.457 175.709 C 323.22 175.709 322.819 175.813 322.545 175.951 C 322.272 176.072 321.652 176.244 321.142 176.313 C 320.65 176.382 319.884 176.59 319.465 176.762 C 319.027 176.952 318.499 177.056 318.28 177.004 C 318.043 176.952 317.46 176.987 316.949 177.09 C 316.457 177.211 315.473 177.349 314.762 177.435 C 314.07 177.522 312.593 177.712 311.481 177.867 C 310.388 178.005 308.765 178.212 307.89 178.299 C 307.016 178.385 305.94 178.54 305.521 178.644 C 305.083 178.748 303.917 178.868 302.914 178.92 C 301.912 178.972 300.6 179.076 299.998 179.162 C 297.774 179.455 295.551 179.68 292.981 179.852 C 285.015 180.405 282.883 180.543 279.401 180.733 C 275.647 180.923 262.231 181.078 260.445 180.957 Z " fill="rgb(2,2,2)"/></g><g><path d=" M 263.544 176.797 C 256.927 176.417 254.303 176.175 249.964 175.519 C 239.63 173.965 230.917 170.72 225.011 166.214 C 219.89 162.312 216.463 158.082 214.093 152.765 C 211.487 146.93 210.411 141.423 210.411 133.982 C 210.411 124.745 211.997 115.906 216.354 100.783 C 216.609 99.885 218.049 95.258 219.543 90.511 C 221.038 85.763 222.387 81.499 222.533 81.015 C 224.501 74.369 227.071 67.169 229.495 61.421 C 230.662 58.641 233.596 52.858 235.073 50.458 C 238.828 44.295 244.259 38.735 250.056 35.093 C 256.107 31.312 263.617 28.74 271.017 27.928 C 272.019 27.825 273.131 27.704 273.478 27.669 C 276.321 27.341 282.445 27.22 286.455 27.393 C 288.898 27.514 291.14 27.617 291.431 27.652 C 291.741 27.686 292.634 27.773 293.436 27.842 C 302.969 28.601 313.486 31.692 319.957 35.645 C 324.824 38.632 329.471 43.38 331.786 47.73 C 333.755 51.442 334.849 55.965 337.728 72.556 C 339.296 81.516 340.207 85.746 342.103 93.014 C 343.598 98.694 344.053 100.524 345.311 106.048 C 346.623 111.763 347.644 117.736 348.245 123.053 C 348.555 125.937 348.555 136.105 348.245 138.678 C 347.844 141.871 346.769 146.464 345.803 149.209 C 343.962 154.44 341.775 157.996 338.202 161.587 C 331.622 168.234 322.272 172.135 307.69 174.328 C 301.42 175.26 289.299 176.296 279.128 176.745 C 275.61 176.9 265.859 176.935 263.544 176.797 Z  M 297.483 93.48 C 297.556 93.445 297.92 93.342 298.267 93.273 C 298.613 93.204 299.014 93.083 299.178 93.014 C 299.324 92.945 299.907 92.686 300.454 92.461 C 301.784 91.874 302.459 91.322 303.644 89.803 C 304.828 88.301 305.867 86.384 306.122 85.28 C 306.214 84.831 306.378 84.157 306.469 83.778 C 306.742 82.655 306.687 81.292 306.359 80.756 C 305.776 79.841 305.12 79.686 299.542 79.168 C 296.025 78.857 290.301 78.892 287.604 79.272 C 285.362 79.565 283.594 80.1 283.448 80.497 C 282.992 81.585 283.156 83.467 283.922 85.987 C 284.56 88.076 287.039 91.236 288.624 92.013 C 291.304 93.325 292.58 93.618 295.186 93.601 C 296.371 93.584 297.392 93.532 297.483 93.48 Z  M 325.698 83.76 C 326.883 83.605 327.321 83.45 328.524 82.707 C 329.891 81.861 331.039 80.791 331.367 80.066 C 331.513 79.738 331.786 79.306 331.987 79.116 C 332.187 78.909 332.443 78.149 332.643 77.234 C 333.299 74.041 332.37 71.192 330 69.207 C 328.232 67.722 326.446 67.066 324.149 67.066 C 322.782 67.066 320.303 67.532 320.066 67.843 C 319.957 67.981 319.483 68.343 319.009 68.637 C 317.751 69.466 316.603 70.881 315.983 72.435 C 315.236 74.282 315.108 75.663 315.564 77.304 C 316.111 79.375 316.749 80.446 318.116 81.671 C 319.355 82.776 320.376 83.26 322.6 83.795 C 323.493 84.002 323.803 84.002 325.698 83.76 Z  M 264.473 83.035 C 267.663 81.361 269.413 78.944 269.559 75.905 C 269.777 71.762 267.134 68.482 262.669 67.359 C 261.539 67.083 260.81 67.066 259.771 67.29 C 259.333 67.394 258.531 67.549 257.984 67.636 C 256.745 67.86 254.94 69.086 253.902 70.415 C 252.972 71.606 251.969 74.006 251.969 75.042 C 251.969 76.285 252.462 78.149 253.081 79.358 C 254.102 81.309 256.49 83.156 258.677 83.691 C 259.042 83.778 260.226 83.812 261.284 83.778 C 263.106 83.691 263.307 83.639 264.473 83.035 Z " fill="rgb(126,99,47)"/><path d=" M 292.762 90.424 C 292.488 90.217 291.978 90.01 291.632 89.958 C 290.83 89.837 288.752 87.955 287.804 86.488 C 287.093 85.383 286.546 83.743 286.638 83.001 C 286.692 82.586 286.747 82.569 288.788 82.345 C 292.015 81.999 296.699 81.896 297.209 82.155 C 297.483 82.31 298.175 82.362 299.287 82.327 C 301.055 82.276 302.277 82.5 302.659 82.932 C 303.133 83.467 302.842 85.21 302.021 86.782 C 301.511 87.783 299.561 89.44 298.102 90.131 C 297.045 90.614 296.699 90.683 295.077 90.735 C 293.436 90.787 293.199 90.77 292.762 90.424 Z " fill="rgb(126,99,47)"/></g><g><path d=" M 264.346 176.848 C 264.309 176.814 263.216 176.728 261.903 176.659 C 258.586 176.486 256.727 176.348 255.159 176.141 C 254.758 176.089 253.974 176.003 253.428 175.951 C 252.279 175.83 252.079 175.813 251.331 175.657 C 251.04 175.588 250.384 175.502 249.873 175.433 C 249.381 175.381 248.798 175.312 248.597 175.277 C 248.397 175.226 247.577 175.088 246.775 174.949 C 245.116 174.656 239.939 173.413 239.119 173.119 C 238.809 172.999 237.698 172.619 236.64 172.256 C 235.583 171.894 234.544 171.531 234.362 171.428 C 234.18 171.341 233.159 170.875 232.102 170.374 C 231.045 169.874 229.86 169.287 229.459 169.062 C 229.058 168.821 228.602 168.579 228.456 168.527 C 227.6 168.165 222.915 164.625 221.621 163.365 C 220.199 161.984 217.155 158.445 217.155 158.169 C 217.155 158.1 217.028 157.91 216.882 157.754 C 216.736 157.599 216.408 157.133 216.153 156.701 C 214.166 153.352 212.963 150.469 211.961 146.705 C 211.45 144.772 211.213 143.615 210.867 141.353 C 210.594 139.575 210.503 137.763 210.503 133.93 C 210.503 129.148 210.648 127.041 211.232 123.053 C 211.286 122.725 211.359 122.104 211.414 121.672 C 211.469 121.241 211.596 120.464 211.706 119.946 C 211.815 119.428 211.961 118.617 212.052 118.133 C 212.398 116.303 212.817 114.318 212.963 113.817 C 213.036 113.541 213.2 112.833 213.328 112.263 C 213.547 111.331 214.64 107.205 215.552 103.89 C 215.734 103.182 215.916 102.457 215.953 102.302 C 215.971 102.129 216.044 101.939 216.117 101.888 C 216.189 101.819 216.244 101.542 216.244 101.283 C 216.244 101.024 216.335 100.748 216.426 100.696 C 216.536 100.645 216.609 100.368 216.609 100.092 C 216.609 99.816 216.7 99.54 216.791 99.488 C 216.9 99.436 216.973 99.16 216.973 98.884 C 216.973 98.607 217.046 98.349 217.137 98.297 C 217.228 98.245 217.356 97.9 217.411 97.554 C 217.484 97.192 217.648 96.553 217.793 96.121 C 217.939 95.69 218.304 94.533 218.614 93.532 C 218.924 92.53 219.288 91.408 219.416 91.029 C 219.543 90.649 219.798 89.872 219.981 89.302 C 220.291 88.301 220.783 86.782 221.257 85.331 C 221.384 84.952 221.585 84.295 221.712 83.864 C 221.84 83.432 222.022 82.811 222.132 82.483 C 222.259 82.155 222.35 81.758 222.368 81.62 C 222.368 81.464 222.478 81.188 222.605 80.981 C 222.715 80.774 222.806 80.411 222.806 80.169 C 222.806 79.928 222.897 79.686 222.988 79.634 C 223.098 79.582 223.17 79.341 223.17 79.099 C 223.17 78.875 223.243 78.547 223.335 78.374 C 223.48 78.098 223.717 77.39 224.337 75.404 C 224.866 73.678 226.688 68.412 226.816 68.24 C 226.889 68.154 227.089 67.601 227.272 67.031 C 227.454 66.462 227.673 65.926 227.764 65.823 C 227.837 65.737 227.91 65.564 227.91 65.426 C 227.91 65.288 228.037 64.908 228.201 64.563 C 228.693 63.492 228.784 63.251 228.93 62.802 C 228.985 62.56 229.24 61.938 229.495 61.421 C 229.933 60.506 230.06 60.212 230.534 59.09 C 230.844 58.382 231.519 56.949 231.865 56.328 C 234.216 51.943 235.474 49.715 235.838 49.336 C 235.984 49.18 236.112 49.008 236.112 48.939 C 236.112 48.887 236.349 48.49 236.622 48.058 C 239.338 44.001 245.572 37.838 249.035 35.783 C 249.199 35.697 249.819 35.3 250.42 34.903 C 251.022 34.523 251.641 34.16 251.787 34.074 C 251.933 34.005 252.389 33.763 252.79 33.539 C 254.266 32.71 258.404 30.863 258.786 30.863 C 258.896 30.863 259.078 30.794 259.169 30.708 C 259.497 30.431 264.51 29.016 265.749 28.86 C 265.968 28.843 266.661 28.705 267.299 28.55 C 267.936 28.394 268.83 28.239 269.285 28.187 C 269.741 28.135 270.306 28.066 270.561 28.032 C 275.009 27.393 281.88 27.168 287.604 27.479 C 291.249 27.669 291.522 27.686 292.981 27.842 C 293.637 27.911 294.493 27.98 294.894 28.032 C 295.769 28.101 296.881 28.239 297.629 28.36 C 297.938 28.412 298.54 28.498 298.996 28.55 C 299.451 28.584 300.071 28.705 300.363 28.791 C 300.673 28.878 301.766 29.102 302.823 29.292 C 303.88 29.482 305.32 29.81 306.013 30 C 306.724 30.19 307.726 30.466 308.237 30.604 C 308.765 30.742 309.677 31.053 310.242 31.277 C 310.825 31.502 311.499 31.743 311.755 31.813 C 312.921 32.141 318.152 34.54 318.973 35.127 C 319.282 35.352 319.611 35.524 319.702 35.524 C 319.902 35.524 321.652 36.733 323.001 37.803 C 324.258 38.77 326.974 41.308 327.795 42.257 C 328.141 42.654 328.706 43.276 329.016 43.621 C 329.344 43.966 329.617 44.329 329.617 44.433 C 329.617 44.536 329.781 44.761 329.982 44.933 C 330.182 45.106 330.346 45.313 330.346 45.417 C 330.346 45.503 330.529 45.814 330.766 46.107 C 331.841 47.557 332.989 50.009 333.591 52.184 C 333.791 52.858 333.901 53.324 334.721 56.621 C 335.067 58.054 335.541 60.402 336.106 63.665 C 336.252 64.476 336.416 65.339 336.452 65.598 C 336.507 65.875 336.58 66.306 336.635 66.6 C 336.689 66.876 336.762 67.342 336.817 67.636 C 336.872 67.912 336.945 68.378 336.999 68.671 C 337.054 68.948 337.145 69.448 337.2 69.742 C 337.254 70.053 337.327 70.467 337.364 70.657 C 337.4 70.847 337.473 71.347 337.528 71.779 C 337.674 72.763 338.148 75.404 338.366 76.527 C 338.457 77.01 338.676 78.098 338.84 78.944 C 339.205 80.929 340.134 85.469 340.371 86.367 C 341.83 92.323 342.978 96.726 343.124 97.002 C 343.197 97.14 343.306 97.641 343.379 98.107 C 343.434 98.573 343.561 99.039 343.652 99.143 C 343.743 99.263 343.78 99.402 343.707 99.453 C 343.652 99.522 343.689 99.661 343.798 99.781 C 343.889 99.902 344.017 100.368 344.071 100.8 C 344.126 101.232 344.254 101.888 344.363 102.267 C 344.545 102.923 344.728 103.666 345.457 106.825 C 346.058 109.346 347.097 114.905 347.498 117.615 C 347.79 119.583 347.808 119.739 347.936 120.913 C 348.009 121.482 348.081 122.19 348.118 122.466 C 348.355 124.141 348.482 127.145 348.482 130.995 C 348.482 137.901 348.081 141.353 346.751 146.101 C 346.532 146.861 346.277 147.776 346.186 148.121 C 346.04 148.708 345.712 149.623 345.274 150.642 C 345.183 150.849 345.019 151.229 344.91 151.505 C 344.4 152.696 344.217 153.093 343.634 154.198 C 342.613 156.166 342.103 156.943 340.189 159.394 C 339.023 160.896 335.796 163.866 333.81 165.282 C 331.44 166.956 330.401 167.56 327.977 168.665 C 324.805 170.133 323.949 170.478 323.056 170.702 C 322.6 170.823 322.144 170.979 322.035 171.065 C 321.944 171.134 321.36 171.341 320.759 171.497 C 320.176 171.652 319.282 171.894 318.772 172.032 C 317.496 172.394 314.653 173.05 313.031 173.361 C 312.283 173.499 311.044 173.741 310.296 173.896 C 309.549 174.034 308.273 174.242 307.471 174.345 C 306.669 174.432 305.813 174.552 305.557 174.587 C 305.302 174.621 304.737 174.708 304.281 174.742 C 303.826 174.794 303.133 174.88 302.732 174.932 C 301.985 175.019 301.074 175.122 299.36 175.277 C 298.813 175.329 297.902 175.416 297.355 175.467 C 296.808 175.519 295.897 175.588 295.35 175.64 C 293.345 175.795 292.324 175.882 291.34 175.968 C 289.39 176.141 283.758 176.503 280.404 176.676 C 278.526 176.779 264.437 176.918 264.346 176.848 Z  M 302.878 169.891 C 302.058 169.857 300.654 169.857 299.779 169.891 C 298.904 169.908 299.579 169.943 301.274 169.943 C 302.987 169.943 303.698 169.908 302.878 169.891 Z  M 298.084 169.77 C 298.084 169.718 297.993 169.632 297.866 169.563 C 297.738 169.494 297.72 169.511 297.793 169.632 C 297.92 169.839 298.084 169.908 298.084 169.77 Z  M 305.32 169.546 C 305.248 169.494 305.138 169.494 305.065 169.546 C 305.011 169.615 305.065 169.667 305.193 169.667 C 305.32 169.667 305.375 169.615 305.32 169.546 Z  M 296.936 168.855 C 296.863 168.803 296.808 168.855 296.808 168.976 C 296.808 169.097 296.863 169.149 296.936 169.097 C 296.991 169.028 296.991 168.924 296.936 168.855 Z  M 306.852 168.683 C 307.088 168.406 307.07 168.389 306.797 168.614 C 306.615 168.734 306.469 168.872 306.469 168.907 C 306.469 169.045 306.615 168.959 306.852 168.683 Z  M 307.143 167.992 C 307.07 167.94 307.016 167.992 307.016 168.113 C 307.016 168.234 307.07 168.285 307.143 168.234 C 307.198 168.165 307.198 168.061 307.143 167.992 Z  M 307.325 167.388 C 307.271 167.25 307.216 167.301 307.216 167.491 C 307.198 167.681 307.253 167.785 307.307 167.716 C 307.362 167.664 307.38 167.509 307.325 167.388 Z  M 307.216 165.989 C 307.034 165.834 307.016 165.851 307.125 166.093 C 307.18 166.266 307.289 166.352 307.344 166.3 C 307.398 166.248 307.344 166.11 307.216 165.989 Z  M 307.016 165.627 C 307.016 165.575 306.924 165.489 306.797 165.42 C 306.669 165.351 306.651 165.368 306.724 165.489 C 306.852 165.696 307.016 165.765 307.016 165.627 Z  M 306.013 164.522 L 305.503 164.056 L 305.94 164.591 C 306.177 164.884 306.414 165.109 306.451 165.057 C 306.505 165.023 306.305 164.781 306.013 164.522 Z  M 296.207 163.072 C 296.152 162.951 296.116 163.037 296.116 163.279 C 296.116 163.521 296.152 163.607 296.207 163.503 C 296.243 163.382 296.243 163.175 296.207 163.072 Z  M 305.193 163.572 C 305.193 163.538 304.919 163.296 304.61 163.003 L 304.008 162.502 L 304.537 163.072 C 305.047 163.59 305.193 163.71 305.193 163.572 Z  M 303.552 162.191 C 303.552 162.157 303.37 161.984 303.151 161.794 L 302.732 161.466 L 303.079 161.863 C 303.407 162.226 303.552 162.329 303.552 162.191 Z  M 297.483 161.604 C 297.41 161.552 297.3 161.552 297.228 161.604 C 297.173 161.673 297.228 161.725 297.355 161.725 C 297.483 161.725 297.537 161.673 297.483 161.604 Z  M 302.641 161.483 C 302.641 161.432 302.55 161.345 302.422 161.276 C 302.295 161.207 302.277 161.224 302.349 161.345 C 302.477 161.552 302.641 161.622 302.641 161.483 Z  M 298.722 160.983 C 299.069 160.914 299.069 160.896 298.704 160.879 C 298.485 160.879 298.194 161 298.066 161.173 C 297.847 161.432 297.847 161.449 298.084 161.276 C 298.23 161.155 298.522 161.035 298.722 160.983 Z  M 302.04 161.086 C 301.967 161.035 301.857 161.035 301.784 161.086 C 301.73 161.155 301.784 161.207 301.912 161.207 C 302.04 161.207 302.094 161.155 302.04 161.086 Z  M 301.493 160.914 C 301.42 160.862 301.31 160.862 301.238 160.914 C 301.183 160.983 301.238 161.035 301.365 161.035 C 301.493 161.035 301.547 160.983 301.493 160.914 Z  M 300.508 160.741 C 300.272 160.707 299.871 160.707 299.597 160.741 C 299.305 160.776 299.506 160.81 299.998 160.81 C 300.508 160.81 300.727 160.776 300.508 160.741 Z  M 224.137 157.806 C 224.009 157.772 223.79 157.772 223.681 157.806 C 223.553 157.858 223.644 157.892 223.9 157.892 C 224.155 157.892 224.246 157.858 224.137 157.806 Z  M 224.939 157.634 C 224.866 157.582 224.756 157.582 224.683 157.634 C 224.629 157.703 224.683 157.754 224.811 157.754 C 224.939 157.754 224.993 157.703 224.939 157.634 Z  M 222.806 157.513 C 222.806 157.478 222.678 157.392 222.514 157.34 C 222.368 157.288 222.296 157.306 222.35 157.409 C 222.46 157.582 222.806 157.651 222.806 157.513 Z  M 225.631 157.409 C 225.686 157.306 225.613 157.288 225.467 157.34 C 225.139 157.461 225.084 157.582 225.34 157.582 C 225.449 157.582 225.576 157.513 225.631 157.409 Z  M 226.178 157.064 C 226.233 156.977 226.251 156.891 226.196 156.891 C 226.142 156.891 226.05 156.977 225.996 157.064 C 225.941 157.167 225.923 157.236 225.977 157.236 C 226.032 157.236 226.123 157.167 226.178 157.064 Z  M 220.983 156.477 C 220.983 156.425 220.892 156.339 220.764 156.27 C 220.637 156.201 220.619 156.218 220.692 156.339 C 220.819 156.546 220.983 156.615 220.983 156.477 Z  M 226.907 156.373 C 226.962 156.287 226.98 156.201 226.925 156.201 C 226.871 156.201 226.779 156.287 226.725 156.373 C 226.67 156.477 226.652 156.546 226.707 156.546 C 226.761 156.546 226.852 156.477 226.907 156.373 Z  M 218.012 154.181 C 217.939 154.129 217.885 154.181 217.885 154.302 C 217.885 154.422 217.939 154.474 218.012 154.422 C 218.067 154.353 218.067 154.25 218.012 154.181 Z  M 226.998 151.315 C 226.998 151.298 226.488 150.814 225.868 150.244 L 224.72 149.209 L 225.813 150.296 C 226.816 151.298 226.998 151.453 226.998 151.315 Z  M 216.372 150.642 C 216.317 150.503 216.262 150.555 216.262 150.745 C 216.244 150.935 216.299 151.039 216.354 150.97 C 216.408 150.918 216.426 150.762 216.372 150.642 Z  M 216.372 149.606 C 216.317 149.468 216.262 149.519 216.262 149.709 C 216.244 149.899 216.299 150.003 216.354 149.934 C 216.408 149.882 216.426 149.727 216.372 149.606 Z  M 224.629 149.226 C 224.629 149.174 224.538 149.088 224.41 149.019 C 224.282 148.95 224.264 148.967 224.337 149.088 C 224.465 149.295 224.629 149.364 224.629 149.226 Z  M 223.626 148.604 C 223.571 148.518 223.407 148.432 223.298 148.432 C 223.17 148.432 223.189 148.501 223.353 148.604 C 223.699 148.812 223.772 148.812 223.626 148.604 Z  M 222.204 147.966 C 222.132 147.914 222.022 147.914 221.949 147.966 C 221.895 148.035 221.949 148.086 222.077 148.086 C 222.204 148.086 222.259 148.035 222.204 147.966 Z  M 221.658 147.793 C 221.585 147.741 221.475 147.741 221.402 147.793 C 221.348 147.862 221.402 147.914 221.53 147.914 C 221.658 147.914 221.712 147.862 221.658 147.793 Z  M 220.929 147.62 C 220.856 147.569 220.746 147.569 220.673 147.62 C 220.619 147.689 220.673 147.741 220.801 147.741 C 220.929 147.741 220.983 147.689 220.929 147.62 Z  M 218.559 147.448 C 218.486 147.396 218.377 147.396 218.304 147.448 C 218.249 147.517 218.304 147.569 218.431 147.569 C 218.559 147.569 218.614 147.517 218.559 147.448 Z  M 220.199 147.448 C 220.127 147.396 220.017 147.396 219.944 147.448 C 219.89 147.517 219.944 147.569 220.072 147.569 C 220.199 147.569 220.254 147.517 220.199 147.448 Z  M 344.327 135.018 C 344.254 134.966 344.144 134.966 344.071 135.018 C 344.017 135.087 344.071 135.138 344.199 135.138 C 344.327 135.138 344.381 135.087 344.327 135.018 Z  M 342.012 134.897 C 342.012 134.845 341.921 134.759 341.793 134.689 C 341.665 134.62 341.647 134.638 341.72 134.759 C 341.848 134.966 342.012 135.035 342.012 134.897 Z  M 345.238 134.672 C 345.165 134.62 345.056 134.62 344.983 134.672 C 344.928 134.741 344.983 134.793 345.11 134.793 C 345.238 134.793 345.293 134.741 345.238 134.672 Z  M 346.022 134.189 C 346.259 133.947 346.405 133.757 346.35 133.757 C 346.313 133.757 346.076 133.947 345.84 134.189 C 345.603 134.431 345.457 134.62 345.511 134.62 C 345.548 134.62 345.785 134.431 346.022 134.189 Z  M 341.1 134.379 C 341.1 134.327 341.009 134.241 340.882 134.172 C 340.754 134.103 340.736 134.12 340.809 134.241 C 340.936 134.448 341.1 134.517 341.1 134.379 Z  M 340.007 133.757 C 339.861 133.671 339.66 133.585 339.551 133.585 C 339.46 133.585 339.496 133.671 339.642 133.757 C 339.788 133.844 340.007 133.93 340.098 133.93 C 340.207 133.93 340.153 133.844 340.007 133.757 Z  M 346.696 132.687 C 346.66 132.462 346.623 132.635 346.623 133.067 C 346.623 133.498 346.66 133.671 346.696 133.464 C 346.733 133.239 346.733 132.894 346.696 132.687 Z  M 338.895 133.343 C 338.858 133.308 338.622 133.188 338.366 133.084 C 337.929 132.894 337.929 132.894 338.257 133.136 C 338.549 133.36 339.15 133.55 338.895 133.343 Z  M 337.82 132.825 C 337.82 132.79 337.601 132.635 337.327 132.48 L 336.817 132.186 L 337.254 132.531 C 337.674 132.894 337.82 132.963 337.82 132.825 Z  M 346.514 131.478 C 346.459 131.34 346.405 131.392 346.405 131.582 C 346.386 131.772 346.441 131.875 346.496 131.806 C 346.55 131.755 346.569 131.599 346.514 131.478 Z  M 336.033 131.185 C 335.869 130.909 335.705 130.701 335.65 130.736 C 335.578 130.822 336.143 131.686 336.27 131.686 C 336.307 131.686 336.197 131.461 336.033 131.185 Z  M 346.332 130.874 C 346.259 130.822 346.204 130.874 346.204 130.995 C 346.204 131.116 346.259 131.168 346.332 131.116 C 346.386 131.047 346.386 130.943 346.332 130.874 Z  M 335.578 130.184 C 335.505 130.132 335.45 130.184 335.45 130.304 C 335.45 130.425 335.505 130.477 335.578 130.425 C 335.632 130.356 335.632 130.253 335.578 130.184 Z  M 346.149 129.752 C 346.095 129.614 346.04 129.666 346.04 129.856 C 346.022 130.045 346.076 130.149 346.131 130.08 C 346.186 130.028 346.204 129.873 346.149 129.752 Z  M 335.395 129.579 C 335.341 129.441 335.286 129.493 335.286 129.683 C 335.268 129.873 335.322 129.976 335.377 129.907 C 335.432 129.856 335.45 129.7 335.395 129.579 Z  M 285.38 129.493 C 285.143 129.458 284.778 129.458 284.56 129.493 C 284.323 129.528 284.505 129.562 284.961 129.562 C 285.416 129.562 285.599 129.528 285.38 129.493 Z  M 283.685 129.372 C 283.685 129.32 283.594 129.234 283.466 129.165 C 283.338 129.096 283.32 129.113 283.393 129.234 C 283.521 129.441 283.685 129.51 283.685 129.372 Z  M 286.729 129.148 C 286.656 129.096 286.546 129.096 286.474 129.148 C 286.419 129.217 286.474 129.269 286.601 129.269 C 286.729 129.269 286.783 129.217 286.729 129.148 Z  M 345.858 128.871 C 345.675 128.716 345.657 128.733 345.767 128.975 C 345.821 129.148 345.931 129.234 345.985 129.182 C 346.04 129.13 345.985 128.992 345.858 128.871 Z  M 287.822 128.802 C 287.749 128.751 287.64 128.751 287.567 128.802 C 287.512 128.871 287.567 128.923 287.695 128.923 C 287.822 128.923 287.877 128.871 287.822 128.802 Z  M 282.956 128.699 C 282.956 128.664 282.737 128.457 282.464 128.215 L 281.953 127.801 L 282.391 128.284 C 282.81 128.716 282.956 128.837 282.956 128.699 Z  M 288.515 128.578 C 288.57 128.492 288.588 128.405 288.533 128.405 C 288.479 128.405 288.387 128.492 288.333 128.578 C 288.278 128.682 288.26 128.751 288.314 128.751 C 288.369 128.751 288.46 128.682 288.515 128.578 Z  M 344.746 127.974 C 344.308 127.542 343.907 127.197 343.853 127.197 C 343.798 127.197 344.126 127.542 344.564 127.974 C 345.001 128.405 345.402 128.751 345.457 128.751 C 345.511 128.751 345.183 128.405 344.746 127.974 Z  M 335.395 128.026 C 335.341 127.905 335.304 127.991 335.304 128.233 C 335.304 128.474 335.341 128.561 335.395 128.457 C 335.432 128.336 335.432 128.129 335.395 128.026 Z  M 288.916 127.421 C 288.843 127.37 288.788 127.421 288.788 127.542 C 288.788 127.663 288.843 127.715 288.916 127.663 C 288.971 127.594 288.971 127.49 288.916 127.421 Z  M 335.578 127.249 C 335.505 127.197 335.45 127.249 335.45 127.37 C 335.45 127.49 335.505 127.542 335.578 127.49 C 335.632 127.421 335.632 127.318 335.578 127.249 Z  M 336.38 126.04 C 336.617 125.764 336.598 125.747 336.325 125.971 C 336.143 126.092 335.997 126.23 335.997 126.265 C 335.997 126.403 336.143 126.316 336.38 126.04 Z  M 342.741 126.282 C 342.741 126.247 342.522 126.04 342.249 125.798 L 341.738 125.384 L 342.176 125.868 C 342.595 126.299 342.741 126.42 342.741 126.282 Z  M 282.008 125.557 C 281.953 125.505 281.844 125.591 281.789 125.764 C 281.68 126.006 281.698 126.023 281.88 125.868 C 282.008 125.747 282.063 125.609 282.008 125.557 Z  M 282.591 124.417 C 282.865 123.934 282.682 124.02 282.318 124.538 C 282.154 124.797 282.099 124.935 282.208 124.883 C 282.318 124.814 282.5 124.607 282.591 124.417 Z  M 340.681 124.832 C 340.608 124.78 340.499 124.78 340.426 124.832 C 340.371 124.901 340.426 124.953 340.554 124.953 C 340.681 124.953 340.736 124.901 340.681 124.832 Z  M 338.312 124.659 C 338.239 124.607 338.129 124.607 338.056 124.659 C 338.002 124.728 338.056 124.78 338.184 124.78 C 338.312 124.78 338.366 124.728 338.312 124.659 Z  M 340.134 124.659 C 340.061 124.607 339.952 124.607 339.879 124.659 C 339.825 124.728 339.879 124.78 340.007 124.78 C 340.134 124.78 340.189 124.728 340.134 124.659 Z  M 339.223 124.486 C 339.15 124.435 339.041 124.435 338.968 124.486 C 338.913 124.555 338.968 124.607 339.095 124.607 C 339.223 124.607 339.278 124.555 339.223 124.486 Z  M 289.153 124.193 C 289.153 124.141 289.062 124.055 288.934 123.986 C 288.807 123.917 288.788 123.934 288.861 124.055 C 288.989 124.262 289.153 124.331 289.153 124.193 Z  M 283.083 123.623 C 283.01 123.571 282.956 123.623 282.956 123.744 C 282.956 123.865 283.01 123.917 283.083 123.865 C 283.138 123.796 283.138 123.692 283.083 123.623 Z  M 283.594 122.915 C 283.539 122.864 283.393 122.915 283.266 123.036 C 283.101 123.209 283.12 123.226 283.375 123.123 C 283.557 123.071 283.648 122.967 283.594 122.915 Z  M 288.242 123.002 C 288.242 122.967 288.059 122.795 287.841 122.605 L 287.421 122.277 L 287.768 122.674 C 288.096 123.036 288.242 123.14 288.242 123.002 Z  M 284.778 122.536 C 285.125 122.346 285.343 122.208 285.234 122.208 C 285.143 122.208 284.76 122.346 284.414 122.536 C 284.068 122.725 283.867 122.864 283.958 122.864 C 284.068 122.864 284.432 122.725 284.778 122.536 Z  M 285.817 122.069 C 285.744 122.018 285.635 122.018 285.562 122.069 C 285.507 122.138 285.562 122.19 285.69 122.19 C 285.817 122.19 285.872 122.138 285.817 122.069 Z  M 243.038 109.518 C 243.038 109.467 242.947 109.38 242.819 109.311 C 242.692 109.242 242.674 109.259 242.746 109.38 C 242.874 109.587 243.038 109.657 243.038 109.518 Z  M 242.491 109.018 C 242.491 108.983 242.309 108.811 242.09 108.621 L 241.671 108.293 L 242.017 108.69 C 242.345 109.052 242.491 109.156 242.491 109.018 Z  M 247.431 108.776 C 247.668 108.5 247.65 108.483 247.376 108.707 C 247.194 108.828 247.048 108.966 247.048 109 C 247.048 109.139 247.194 109.052 247.431 108.776 Z  M 241.27 107.429 C 241.215 107.274 241.124 107.188 241.088 107.24 C 241.033 107.291 241.051 107.395 241.124 107.498 C 241.288 107.775 241.398 107.723 241.27 107.429 Z  M 240.978 106.704 C 240.906 106.653 240.851 106.704 240.851 106.825 C 240.851 106.946 240.906 106.998 240.978 106.946 C 241.033 106.877 241.033 106.773 240.978 106.704 Z  M 248.452 106.704 C 248.379 106.653 248.324 106.704 248.324 106.825 C 248.324 106.946 248.379 106.998 248.452 106.946 C 248.506 106.877 248.506 106.773 248.452 106.704 Z  M 240.796 106.186 C 240.723 106.135 240.669 106.186 240.669 106.307 C 240.669 106.428 240.723 106.48 240.796 106.428 C 240.851 106.359 240.851 106.255 240.796 106.186 Z  M 240.614 104.892 C 240.559 104.771 240.523 104.857 240.523 105.099 C 240.523 105.34 240.559 105.427 240.614 105.323 C 240.65 105.202 240.65 104.995 240.614 104.892 Z  M 248.634 104.892 C 248.579 104.771 248.543 104.857 248.543 105.099 C 248.543 105.34 248.579 105.427 248.634 105.323 C 248.67 105.202 248.67 104.995 248.634 104.892 Z  M 241.398 103.631 C 241.835 103.131 241.835 103.131 241.434 103.459 C 241.197 103.649 240.924 103.959 240.814 104.149 C 240.614 104.512 240.669 104.46 241.398 103.631 Z  M 248.324 103.994 C 248.324 103.942 248.233 103.856 248.105 103.787 C 247.978 103.718 247.959 103.735 248.032 103.856 C 248.16 104.063 248.324 104.132 248.324 103.994 Z  M 246.993 103.252 C 246.921 103.2 246.811 103.2 246.738 103.252 C 246.684 103.321 246.738 103.372 246.866 103.372 C 246.993 103.372 247.048 103.321 246.993 103.252 Z  M 242.4 102.889 C 242.345 102.837 242.2 102.889 242.072 103.01 C 241.908 103.182 241.926 103.2 242.181 103.096 C 242.364 103.044 242.455 102.941 242.4 102.889 Z  M 246.447 103.096 C 246.392 103.044 246.228 103.027 246.1 103.079 C 245.954 103.131 246.009 103.182 246.21 103.182 C 246.41 103.2 246.52 103.148 246.447 103.096 Z  M 245.462 102.906 C 245.335 102.872 245.116 102.872 245.007 102.906 C 244.879 102.958 244.97 102.993 245.225 102.993 C 245.481 102.993 245.572 102.958 245.462 102.906 Z  M 244.004 102.734 C 243.767 102.699 243.403 102.699 243.184 102.734 C 242.947 102.768 243.129 102.803 243.585 102.803 C 244.041 102.803 244.223 102.768 244.004 102.734 Z  M 295.587 93.653 C 296.79 93.722 297.428 93.687 297.592 93.549 C 297.738 93.445 298.102 93.325 298.394 93.29 C 299.342 93.187 301.402 92.099 302.368 91.184 C 303.625 89.993 304.099 89.457 304.099 89.233 C 304.099 89.129 304.172 89.043 304.263 89.043 C 304.5 89.043 304.938 88.284 305.685 86.643 C 305.922 86.091 306.031 85.711 306.487 83.605 C 306.779 82.31 306.615 80.825 306.141 80.377 C 305.448 79.703 304.646 79.548 301.001 79.289 C 300.545 79.254 299.615 79.151 298.904 79.064 C 297.61 78.909 289.517 78.926 288.515 79.099 C 288.223 79.151 287.677 79.237 287.33 79.272 C 285.216 79.531 285.07 79.565 284.104 80.031 C 283.411 80.359 283.357 80.48 283.211 81.671 C 283.065 82.966 283.995 87.127 284.578 87.748 C 284.742 87.938 285.034 88.284 285.198 88.525 C 287.111 91.218 287.64 91.65 290.155 92.703 C 292.033 93.48 293.254 93.825 293.546 93.687 C 293.691 93.618 294.621 93.601 295.587 93.653 Z  M 325.844 83.778 C 326.318 83.709 326.974 83.553 327.302 83.432 C 328.542 82.932 331.258 80.791 331.258 80.325 C 331.258 80.187 331.495 79.824 331.768 79.513 C 332.807 78.357 333.153 75.249 332.515 72.901 C 332.206 71.779 331.258 70.122 330.656 69.673 C 330.365 69.466 329.854 69.034 329.544 68.758 C 329.235 68.464 328.615 68.084 328.159 67.912 C 327.703 67.739 327.138 67.515 326.883 67.411 C 325.37 66.807 320.759 67.135 319.975 67.912 C 319.793 68.102 319.137 68.585 318.517 68.999 C 317.915 69.414 317.405 69.845 317.405 69.966 C 317.405 70.07 317.168 70.381 316.858 70.657 C 316.567 70.933 316.311 71.296 316.311 71.468 C 316.311 71.641 316.239 71.779 316.129 71.779 C 316.038 71.779 315.947 71.934 315.947 72.142 C 315.947 72.331 315.801 72.815 315.619 73.212 C 315.054 74.438 315.236 77.355 315.965 78.719 C 316.056 78.892 316.129 79.116 316.129 79.237 C 316.129 79.617 317.205 80.981 318.098 81.758 C 319.137 82.655 320.941 83.501 322.418 83.795 C 323.475 84.002 323.967 84.002 325.844 83.778 Z  M 264.182 83.191 C 267.007 81.758 268.356 80.359 269.194 77.977 C 269.577 76.924 269.632 76.509 269.577 75.076 C 269.504 73.488 269.395 73.108 268.647 71.52 C 268.283 70.726 266.096 68.654 265.221 68.274 C 263.343 67.446 262.796 67.256 261.994 67.169 C 260.919 67.049 257.274 67.584 256.873 67.912 C 256.727 68.05 256.508 68.154 256.399 68.154 C 256.089 68.154 253.537 70.657 253.209 71.278 C 251.988 73.644 251.751 75.163 252.261 77.252 C 252.863 79.686 254.74 82.034 256.927 83.052 C 258.422 83.743 258.969 83.847 261.174 83.812 C 262.888 83.812 263.07 83.778 264.182 83.191 Z  M 247.176 58.537 C 246.811 58.503 246.228 58.503 245.9 58.537 C 245.59 58.572 245.9 58.606 246.592 58.606 C 247.303 58.606 247.558 58.572 247.176 58.537 Z  M 243.767 57.899 C 243.767 57.847 243.676 57.761 243.548 57.691 C 243.421 57.622 243.403 57.64 243.476 57.761 C 243.603 57.968 243.767 58.037 243.767 57.899 Z  M 250.529 57.329 C 250.766 57.053 250.748 57.035 250.475 57.26 C 250.165 57.484 250.074 57.622 250.22 57.622 C 250.256 57.622 250.402 57.484 250.529 57.329 Z  M 243.038 57.398 C 243.038 57.363 242.765 57.122 242.455 56.828 L 241.853 56.328 L 242.382 56.897 C 242.892 57.415 243.038 57.536 243.038 57.398 Z  M 241.635 55.637 C 241.58 55.482 241.489 55.395 241.452 55.447 C 241.398 55.499 241.416 55.603 241.489 55.706 C 241.653 55.982 241.762 55.931 241.635 55.637 Z  M 250.712 55.326 C 250.529 55.171 250.511 55.188 250.621 55.43 C 250.675 55.603 250.785 55.689 250.839 55.637 C 250.894 55.585 250.839 55.447 250.712 55.326 Z  M 241.343 54.912 C 241.27 54.86 241.215 54.912 241.215 55.033 C 241.215 55.154 241.27 55.205 241.343 55.154 C 241.398 55.085 241.398 54.981 241.343 54.912 Z  M 241.161 54.135 C 241.106 54.014 241.07 54.101 241.07 54.342 C 241.07 54.584 241.106 54.67 241.161 54.567 C 241.197 54.446 241.197 54.239 241.161 54.135 Z  M 250.147 54.463 C 250.147 54.446 249.709 54.031 249.199 53.565 L 248.233 52.702 L 249.144 53.617 C 249.983 54.446 250.147 54.601 250.147 54.463 Z  M 241.161 53.272 C 241.106 53.151 241.07 53.237 241.07 53.479 C 241.07 53.721 241.106 53.807 241.161 53.703 C 241.197 53.583 241.197 53.375 241.161 53.272 Z  M 241.343 52.322 C 241.27 52.271 241.215 52.322 241.215 52.443 C 241.215 52.564 241.27 52.616 241.343 52.564 C 241.398 52.495 241.398 52.391 241.343 52.322 Z  M 247.959 52.547 C 247.959 52.495 247.868 52.409 247.741 52.34 C 247.613 52.271 247.595 52.288 247.668 52.409 C 247.795 52.616 247.959 52.685 247.959 52.547 Z  M 246.264 51.632 C 246.191 51.58 246.082 51.58 246.009 51.632 C 245.954 51.701 246.009 51.753 246.137 51.753 C 246.264 51.753 246.319 51.701 246.264 51.632 Z  M 245.718 51.459 C 245.645 51.407 245.535 51.407 245.462 51.459 C 245.408 51.528 245.462 51.58 245.59 51.58 C 245.718 51.58 245.772 51.528 245.718 51.459 Z  M 242.619 51.286 C 242.546 51.235 242.437 51.235 242.364 51.286 C 242.309 51.356 242.364 51.407 242.491 51.407 C 242.619 51.407 242.674 51.356 242.619 51.286 Z  M 244.988 51.286 C 244.916 51.235 244.806 51.235 244.733 51.286 C 244.679 51.356 244.733 51.407 244.861 51.407 C 244.988 51.407 245.043 51.356 244.988 51.286 Z  M 244.186 51.114 C 244.059 51.079 243.804 51.079 243.64 51.114 C 243.457 51.166 243.567 51.2 243.858 51.2 C 244.168 51.2 244.296 51.166 244.186 51.114 Z  M 323.912 50.769 C 323.839 50.717 323.73 50.717 323.657 50.769 C 323.602 50.838 323.657 50.889 323.785 50.889 C 323.912 50.889 323.967 50.838 323.912 50.769 Z  M 324.641 50.769 C 324.568 50.717 324.459 50.717 324.386 50.769 C 324.331 50.838 324.386 50.889 324.514 50.889 C 324.641 50.889 324.696 50.838 324.641 50.769 Z  M 323.183 50.596 C 323.11 50.544 323.001 50.544 322.928 50.596 C 322.873 50.665 322.928 50.717 323.056 50.717 C 323.183 50.717 323.238 50.665 323.183 50.596 Z  M 322.636 50.423 C 322.563 50.371 322.454 50.371 322.381 50.423 C 322.326 50.492 322.381 50.544 322.509 50.544 C 322.636 50.544 322.691 50.492 322.636 50.423 Z  M 326.373 49.422 C 326.573 49.059 326.555 49.077 325.698 50.026 L 325.152 50.63 L 325.662 50.199 C 325.954 49.957 326.263 49.612 326.373 49.422 Z  M 321.761 50.13 C 321.579 49.974 320.504 49.508 320.504 49.577 C 320.504 49.698 321.452 50.182 321.67 50.199 C 321.761 50.199 321.798 50.164 321.761 50.13 Z  M 319.957 49.267 C 319.957 49.215 319.866 49.128 319.738 49.059 C 319.611 48.99 319.592 49.008 319.665 49.128 C 319.793 49.336 319.957 49.405 319.957 49.267 Z  M 326.646 47.316 C 326.61 46.953 326.573 47.212 326.573 47.868 C 326.573 48.541 326.61 48.818 326.646 48.524 C 326.683 48.213 326.683 47.661 326.646 47.316 Z  M 318.499 48.041 C 318.061 47.609 317.66 47.264 317.606 47.264 C 317.551 47.264 317.879 47.609 318.316 48.041 C 318.754 48.472 319.155 48.818 319.21 48.818 C 319.264 48.818 318.936 48.472 318.499 48.041 Z  M 326.391 46.314 C 326.336 46.159 326.245 46.073 326.209 46.124 C 326.154 46.176 326.172 46.28 326.245 46.383 C 326.409 46.66 326.519 46.608 326.391 46.314 Z  M 325.99 45.486 C 325.808 45.33 325.79 45.348 325.899 45.589 C 325.954 45.762 326.063 45.848 326.118 45.796 C 326.172 45.745 326.118 45.607 325.99 45.486 Z  M 317.168 45.244 C 317.095 45.192 317.041 45.244 317.041 45.365 C 317.041 45.486 317.095 45.538 317.168 45.486 C 317.223 45.417 317.223 45.313 317.168 45.244 Z  M 325.607 45.313 C 325.607 45.279 325.425 45.106 325.206 44.916 L 324.787 44.588 L 325.133 44.985 C 325.461 45.348 325.607 45.451 325.607 45.313 Z  M 318.207 44.001 C 318.152 43.949 317.934 44.105 317.715 44.312 L 317.314 44.726 L 317.806 44.398 C 318.061 44.225 318.244 44.036 318.207 44.001 Z  M 324.769 44.087 C 324.641 43.777 324.186 43.725 323.785 43.984 C 323.584 44.122 323.639 44.139 324.003 44.053 C 324.386 43.984 324.532 44.018 324.623 44.225 C 324.696 44.381 324.769 44.484 324.805 44.45 C 324.86 44.415 324.842 44.243 324.769 44.087 Z  M 263.799 43.932 C 263.762 43.915 263.525 43.742 263.27 43.552 L 262.815 43.207 L 263.161 43.604 C 263.361 43.811 263.598 43.984 263.69 43.984 C 263.799 43.984 263.835 43.966 263.799 43.932 Z  M 264.674 43.69 C 264.601 43.638 264.492 43.638 264.419 43.69 C 264.364 43.759 264.419 43.811 264.546 43.811 C 264.674 43.811 264.728 43.759 264.674 43.69 Z  M 266.114 43.362 C 266.46 43.103 266.46 43.103 266.096 43.259 C 265.895 43.345 265.603 43.466 265.458 43.518 C 265.221 43.604 265.221 43.621 265.476 43.621 C 265.622 43.638 265.913 43.518 266.114 43.362 Z  M 319.902 43.518 C 319.829 43.466 319.72 43.466 319.647 43.518 C 319.592 43.587 319.647 43.638 319.775 43.638 C 319.902 43.638 319.957 43.587 319.902 43.518 Z  M 320.631 43.345 C 320.558 43.293 320.449 43.293 320.376 43.345 C 320.321 43.414 320.376 43.466 320.504 43.466 C 320.631 43.466 320.686 43.414 320.631 43.345 Z  M 322.089 43.345 C 322.017 43.293 321.907 43.293 321.834 43.345 C 321.78 43.414 321.834 43.466 321.962 43.466 C 322.089 43.466 322.144 43.414 322.089 43.345 Z  M 262.723 43.241 C 262.723 43.207 262.541 43.034 262.322 42.844 L 261.903 42.516 L 262.25 42.913 C 262.578 43.276 262.723 43.38 262.723 43.241 Z  M 266.934 42.827 C 267.171 42.551 267.153 42.534 266.879 42.758 C 266.569 42.982 266.478 43.121 266.624 43.121 C 266.661 43.121 266.806 42.982 266.934 42.827 Z  M 261.812 42.551 C 261.812 42.516 261.593 42.309 261.32 42.067 L 260.81 41.653 L 261.247 42.136 C 261.666 42.568 261.812 42.689 261.812 42.551 Z  M 267.226 42.136 C 267.153 42.085 267.098 42.136 267.098 42.257 C 267.098 42.378 267.153 42.43 267.226 42.378 C 267.28 42.309 267.28 42.206 267.226 42.136 Z  M 260.536 41.515 C 260.536 41.48 260.263 41.239 259.953 40.945 L 259.351 40.445 L 259.88 41.014 C 260.39 41.532 260.536 41.653 260.536 41.515 Z  M 267.663 40.583 C 267.9 40.306 267.882 40.289 267.608 40.514 C 267.299 40.738 267.207 40.876 267.353 40.876 C 267.39 40.876 267.535 40.738 267.663 40.583 Z  M 259.26 40.117 C 259.26 40.065 259.169 39.978 259.042 39.909 C 258.914 39.84 258.896 39.858 258.969 39.978 C 259.096 40.186 259.26 40.255 259.26 40.117 Z  M 258.477 38.856 C 258.404 38.805 258.349 38.856 258.349 38.977 C 258.349 39.098 258.404 39.15 258.477 39.098 C 258.531 39.029 258.531 38.925 258.477 38.856 Z  M 258.294 37.907 C 258.24 37.769 258.185 37.82 258.185 38.01 C 258.167 38.2 258.221 38.304 258.276 38.235 C 258.331 38.183 258.349 38.028 258.294 37.907 Z  M 268.009 37.544 C 268.009 37.51 267.827 37.337 267.608 37.147 L 267.189 36.819 L 267.535 37.216 C 267.864 37.579 268.009 37.682 268.009 37.544 Z  M 258.112 36.18 C 258.076 35.956 258.039 36.094 258.039 36.474 C 258.021 36.854 258.057 37.026 258.112 36.871 C 258.148 36.698 258.148 36.388 258.112 36.18 Z  M 266.733 35.645 C 266.733 35.611 266.46 35.369 266.15 35.075 L 265.549 34.575 L 266.077 35.145 C 266.588 35.662 266.733 35.783 266.733 35.645 Z  M 258.805 35.006 C 258.859 34.92 258.878 34.834 258.823 34.834 C 258.768 34.834 258.677 34.92 258.622 35.006 C 258.568 35.11 258.549 35.179 258.604 35.179 C 258.659 35.179 258.75 35.11 258.805 35.006 Z  M 259.643 34.368 C 259.88 34.091 259.862 34.074 259.588 34.299 C 259.279 34.523 259.187 34.661 259.333 34.661 C 259.37 34.661 259.516 34.523 259.643 34.368 Z  M 260.445 33.832 C 260.39 33.781 260.245 33.832 260.117 33.953 C 259.953 34.126 259.971 34.143 260.226 34.04 C 260.409 33.988 260.5 33.884 260.445 33.832 Z  M 264.127 33.85 C 264.054 33.798 263.945 33.798 263.872 33.85 C 263.817 33.919 263.872 33.971 263.999 33.971 C 264.127 33.971 264.182 33.919 264.127 33.85 Z  M 263.58 33.694 C 263.525 33.643 263.361 33.625 263.234 33.677 C 263.088 33.729 263.143 33.781 263.343 33.781 C 263.544 33.798 263.653 33.746 263.58 33.694 Z  M 261.575 33.504 C 261.502 33.453 261.393 33.453 261.32 33.504 C 261.265 33.573 261.32 33.625 261.448 33.625 C 261.575 33.625 261.63 33.573 261.575 33.504 Z  M 262.669 33.504 C 262.596 33.453 262.487 33.453 262.414 33.504 C 262.359 33.573 262.414 33.625 262.541 33.625 C 262.669 33.625 262.723 33.573 262.669 33.504 Z " fill="rgb(139,106,43)"/><path d=" M 292.744 90.338 C 292.47 90.096 292.033 89.906 291.796 89.906 C 290.957 89.906 288.551 87.869 287.932 86.626 C 287.768 86.298 287.494 85.832 287.312 85.608 C 287.13 85.383 287.02 85.141 287.075 85.055 C 287.13 84.969 287.093 84.762 287.002 84.606 C 286.692 84.054 286.565 82.69 286.82 82.552 C 286.929 82.483 287.075 82.517 287.111 82.621 C 287.148 82.759 287.276 82.776 287.494 82.673 C 288.005 82.414 290.429 82.241 290.429 82.465 C 290.429 82.569 290.575 82.655 290.757 82.655 C 290.976 82.655 291.012 82.621 290.83 82.517 C 289.955 81.982 295.988 81.689 297.1 82.207 C 297.446 82.379 298.23 82.448 299.451 82.448 C 300.454 82.448 301.475 82.517 301.73 82.604 C 301.985 82.707 302.295 82.811 302.441 82.863 C 302.823 82.966 302.878 84.658 302.513 85.176 C 302.368 85.4 302.295 85.642 302.349 85.728 C 302.477 85.936 302.003 86.851 301.639 87.144 C 301.493 87.265 301.365 87.42 301.365 87.489 C 301.365 87.662 300.089 88.853 299.433 89.319 C 299.141 89.509 298.412 89.855 297.811 90.079 C 297.209 90.303 296.644 90.562 296.553 90.631 C 296.444 90.7 295.678 90.77 294.822 90.77 C 293.418 90.752 293.199 90.718 292.744 90.338 Z  M 297.884 89.63 C 297.938 89.596 297.793 89.388 297.574 89.164 C 297.136 88.715 297.064 88.353 297.373 88.059 C 297.647 87.8 296.991 87.075 295.46 85.849 C 294.876 85.383 294.238 84.762 294.056 84.485 C 293.856 84.192 293.71 84.019 293.71 84.106 C 293.71 84.468 294.658 85.556 295.532 86.177 C 296.845 87.127 297.246 87.714 297.027 88.335 C 296.863 88.75 296.899 88.888 297.191 89.147 C 297.683 89.561 297.647 89.647 296.717 89.975 C 296.262 90.148 295.897 90.338 295.897 90.407 C 295.897 90.528 297.647 89.837 297.884 89.63 Z  M 294.949 83.277 C 295.496 83.104 295.897 82.863 295.897 82.724 C 295.897 82.586 295.824 82.483 295.715 82.483 C 295.624 82.483 295.551 82.569 295.587 82.673 C 295.605 82.776 295.241 83.001 294.767 83.156 C 294.293 83.311 293.801 83.553 293.673 83.691 C 293.473 83.898 293.473 83.898 293.71 83.743 C 293.856 83.639 294.421 83.432 294.949 83.277 Z  M 289.846 83.052 C 289.663 83.018 289.372 83.018 289.208 83.052 C 289.025 83.104 289.171 83.139 289.517 83.139 C 289.864 83.139 290.01 83.104 289.846 83.052 Z " fill="rgb(139,106,43)"/></g><g><path d=" M 264.309 176.797 C 264.273 176.762 263.307 176.693 262.158 176.641 C 258.768 176.469 256.69 176.313 255.25 176.141 C 254.795 176.072 254.066 175.985 253.61 175.951 C 252.17 175.795 251.897 175.761 251.423 175.64 C 251.022 175.554 250.274 175.45 248.761 175.295 C 248.561 175.277 248.324 175.208 248.215 175.157 C 248.087 175.07 246.866 174.863 245.863 174.742 C 245.772 174.742 245.444 174.673 245.134 174.604 C 243.403 174.19 241.598 173.758 241.124 173.637 C 240.833 173.551 240.286 173.413 239.921 173.327 C 239.538 173.24 238.645 172.947 237.916 172.688 C 237.169 172.429 236.403 172.153 236.203 172.084 C 236.002 172.015 235.601 171.859 235.292 171.738 C 235 171.617 234.508 171.428 234.198 171.307 C 229.167 169.356 223.298 165.385 220.072 161.725 C 219.616 161.224 219.106 160.655 218.942 160.482 C 218.759 160.309 218.614 160.12 218.614 160.05 C 218.614 159.981 218.286 159.567 217.885 159.118 C 217.484 158.669 217.155 158.238 217.155 158.151 C 217.155 158.065 216.937 157.703 216.663 157.323 C 214.932 154.94 212.927 150.486 212.07 147.154 C 211.724 145.808 211.122 143.045 211.031 142.389 C 210.594 139.109 210.557 138.332 210.557 133.93 C 210.539 131.513 210.594 128.992 210.667 128.319 C 210.721 127.663 210.812 126.679 210.867 126.161 C 210.922 125.643 210.995 124.935 211.031 124.607 C 211.086 124.279 211.177 123.658 211.232 123.226 C 211.286 122.795 211.377 122.173 211.432 121.845 C 211.487 121.517 211.56 121.085 211.578 120.895 C 211.614 120.706 211.687 120.326 211.742 120.032 C 211.815 119.756 211.906 119.221 211.943 118.876 C 211.979 118.53 212.07 118.099 212.125 117.926 C 212.179 117.753 212.271 117.339 212.325 117.011 C 212.416 116.407 213.073 113.437 213.583 111.228 C 213.948 109.657 214.786 106.618 215.606 103.804 C 215.971 102.578 216.299 101.404 216.317 101.214 C 216.354 101.024 216.463 100.645 216.59 100.386 C 216.7 100.127 216.773 99.85 216.755 99.781 C 216.736 99.712 216.827 99.436 216.955 99.16 C 217.064 98.884 217.119 98.625 217.064 98.573 C 217.028 98.521 217.046 98.4 217.137 98.297 C 217.265 98.124 217.484 97.468 218.45 94.136 C 218.559 93.756 218.796 93.014 218.978 92.496 C 219.16 91.978 219.452 91.08 219.634 90.511 C 219.798 89.941 220.09 89.043 220.254 88.525 C 220.783 86.954 221.111 85.936 221.621 84.295 C 221.876 83.45 222.277 82.207 222.478 81.55 C 222.697 80.894 222.879 80.238 222.897 80.083 C 222.915 79.928 223.025 79.582 223.134 79.323 C 223.262 79.064 223.335 78.788 223.316 78.719 C 223.298 78.65 223.371 78.408 223.499 78.167 C 223.608 77.925 224.027 76.613 224.446 75.232 C 225.376 72.211 226.47 68.999 226.634 68.758 C 226.707 68.671 226.871 68.274 226.998 67.895 C 227.235 67.118 227.837 65.598 228.201 64.752 C 228.347 64.459 228.456 64.131 228.456 64.027 C 228.456 63.924 228.529 63.699 228.62 63.527 C 228.712 63.371 228.857 63.043 228.948 62.802 C 229.24 62.111 229.477 61.576 229.987 60.523 C 230.243 59.988 230.461 59.47 230.461 59.366 C 230.461 59.28 230.571 58.986 230.717 58.71 C 230.862 58.451 231.774 56.707 232.74 54.86 C 233.706 53.013 234.708 51.183 234.945 50.803 C 235.182 50.423 235.437 49.992 235.51 49.854 C 235.565 49.715 235.802 49.37 236.002 49.077 C 236.221 48.8 236.476 48.438 236.567 48.283 C 238.208 45.71 242.09 41.342 244.679 39.15 C 246.738 37.406 246.775 37.372 247.85 36.646 C 248.415 36.267 248.871 35.904 248.871 35.835 C 248.871 35.766 248.944 35.697 249.035 35.697 C 249.108 35.697 249.946 35.248 250.858 34.713 C 252.917 33.47 254.412 32.658 255.25 32.313 C 257.237 31.485 257.93 31.174 258.203 31.036 C 258.385 30.932 258.622 30.863 258.714 30.863 C 258.823 30.863 259.279 30.708 259.716 30.518 C 260.153 30.328 261.466 29.948 262.669 29.655 C 263.854 29.361 264.947 29.068 265.093 29.016 C 265.239 28.964 265.585 28.895 265.859 28.86 C 266.132 28.826 266.715 28.722 267.134 28.619 C 268.009 28.412 268.52 28.325 269.468 28.187 C 273.058 27.669 278.217 27.324 282.135 27.324 C 285.106 27.324 290.356 27.583 292.889 27.842 C 293.491 27.911 294.348 27.997 294.803 28.049 C 295.97 28.153 296.808 28.256 297.537 28.377 C 297.884 28.429 298.431 28.498 298.722 28.55 C 301.201 28.878 307.854 30.431 309.476 31.053 C 309.677 31.139 310.333 31.364 310.934 31.554 C 311.536 31.761 312.229 32.002 312.484 32.106 C 312.739 32.21 313.195 32.4 313.486 32.52 C 314.361 32.866 317.715 34.454 318.262 34.765 C 320.285 35.939 322.326 37.268 322.964 37.803 C 323.365 38.166 323.748 38.459 323.803 38.459 C 323.894 38.459 326.573 40.997 327.758 42.188 C 328.068 42.534 328.341 42.879 328.341 42.965 C 328.341 43.051 328.505 43.207 328.706 43.328 C 328.906 43.449 329.07 43.656 329.07 43.777 C 329.07 43.897 329.198 44.036 329.344 44.087 C 329.49 44.156 329.617 44.26 329.617 44.364 C 329.617 44.45 329.964 45.002 330.383 45.589 C 331.075 46.556 332.151 48.507 332.953 50.233 C 333.299 50.976 334.283 54.774 334.994 58.106 C 335.031 58.313 335.122 58.693 335.177 58.969 C 335.231 59.228 335.286 59.556 335.304 59.694 C 335.304 59.832 335.432 60.454 335.578 61.075 C 335.705 61.697 335.869 62.543 335.924 62.957 C 335.96 63.371 336.088 64.027 336.197 64.424 C 336.288 64.804 336.416 65.322 336.452 65.564 C 336.489 65.806 336.562 66.237 336.617 66.513 C 336.653 66.807 336.744 67.308 336.799 67.636 C 336.853 67.964 336.945 68.43 336.981 68.671 C 337.182 69.638 337.4 70.985 337.528 71.9 C 337.874 74.386 339.733 83.778 340.554 87.144 C 340.627 87.472 340.791 88.145 340.882 88.612 C 341.192 89.993 342.923 96.708 343.051 96.985 C 343.105 97.123 343.178 97.33 343.197 97.416 C 343.215 97.52 343.251 97.623 343.269 97.675 C 343.306 97.727 343.342 97.917 343.361 98.107 C 343.506 99.177 343.707 99.937 343.853 100.023 C 343.944 100.075 343.98 100.196 343.926 100.282 C 343.853 100.368 343.871 100.524 343.944 100.645 C 344.017 100.765 344.108 101.007 344.126 101.214 C 344.144 101.404 344.454 102.768 344.801 104.236 C 345.748 108.172 346.97 114.076 347.225 115.889 C 347.261 116.182 347.389 116.976 347.498 117.684 C 347.753 119.342 347.826 119.808 347.954 121.068 C 348.009 121.638 348.081 122.346 348.118 122.622 C 348.592 126.644 348.592 136.934 348.118 138.988 C 348.081 139.195 347.99 139.765 347.936 140.231 C 347.626 142.907 346.368 147.879 345.457 150.158 C 345.238 150.676 345.001 151.263 344.928 151.453 C 344.746 151.867 342.613 155.976 342.322 156.442 C 339.77 160.499 335.013 164.902 330.401 167.457 C 329.581 167.906 325.607 169.718 324.514 170.133 C 324.258 170.236 323.858 170.392 323.602 170.495 C 323.347 170.599 322.254 170.944 321.142 171.289 C 316.876 172.584 316.694 172.619 311.755 173.568 C 309.276 174.052 309.13 174.069 307.927 174.224 C 307.471 174.276 306.87 174.38 306.578 174.432 C 306.031 174.535 305.776 174.57 304.099 174.742 C 303.552 174.811 302.769 174.898 302.368 174.932 C 301.475 175.036 300.508 175.139 299.178 175.26 C 298.631 175.312 297.72 175.398 297.173 175.45 C 296.207 175.536 295.496 175.605 293.072 175.795 C 292.47 175.83 291.486 175.916 290.885 175.968 C 288.351 176.175 282.828 176.538 279.948 176.659 C 277.797 176.762 264.382 176.883 264.309 176.797 Z  M 305.175 169.805 C 306.724 169.287 307.253 168.648 307.344 167.181 L 307.417 166.11 L 306.068 164.47 C 304.391 162.433 302.641 161.138 301.201 160.845 C 299.907 160.586 298.303 160.758 297.811 161.207 C 297.592 161.397 297.337 161.552 297.246 161.552 C 296.827 161.552 296.262 162.398 296.079 163.262 C 295.879 164.263 295.824 168.078 296.006 168.527 C 296.061 168.683 296.225 168.803 296.371 168.803 C 296.498 168.803 296.699 168.959 296.808 169.149 C 296.918 169.339 297.155 169.494 297.337 169.494 C 297.519 169.494 297.811 169.649 297.993 169.839 C 298.303 170.15 298.558 170.185 301.165 170.185 C 303.644 170.185 304.154 170.133 305.175 169.805 Z  M 224.92 157.823 C 225.686 157.685 226.944 156.58 227.399 155.614 C 228.001 154.319 227.964 152.731 227.308 151.677 C 225.85 149.295 221.767 147.258 218.851 147.43 C 217.885 147.482 217.611 147.586 217.137 148 C 215.843 149.157 215.734 150.4 216.773 152.04 C 217.155 152.661 217.611 153.576 217.775 154.06 C 218.03 154.819 218.194 154.992 218.796 155.251 C 219.197 155.424 219.634 155.683 219.744 155.821 C 220.236 156.373 222.642 157.754 223.298 157.858 C 223.681 157.91 224.027 157.996 224.064 158.031 C 224.1 158.065 224.209 158.048 224.301 157.996 C 224.373 157.944 224.665 157.875 224.92 157.823 Z  M 344.582 135 C 345.056 134.845 345.73 134.465 346.095 134.154 C 346.86 133.498 346.915 133.032 346.459 130.995 C 346.295 130.287 346.131 129.528 346.095 129.338 C 346.004 128.889 341.994 125.298 341.1 124.866 C 340.189 124.417 338.457 124.383 337.619 124.78 C 335.559 125.781 334.63 128.751 335.705 130.926 C 336.307 132.134 336.671 132.428 339.187 133.619 C 340.39 134.172 341.665 134.793 342.012 134.983 C 342.777 135.38 343.452 135.38 344.582 135 Z  M 287.13 129.113 C 288.752 128.595 289.153 128.284 289.153 127.542 C 289.153 127.283 289.208 127.041 289.262 126.972 C 289.317 126.921 289.408 126.316 289.463 125.643 C 289.536 124.521 289.499 124.366 289.116 124.02 C 288.88 123.796 288.46 123.33 288.169 122.984 C 287.221 121.793 286.291 121.69 284.414 122.501 C 283.958 122.691 283.448 122.898 283.284 122.95 C 283.101 123.002 282.956 123.192 282.956 123.364 C 282.956 123.537 282.719 123.934 282.409 124.262 C 282.117 124.59 281.862 125.022 281.862 125.211 C 281.862 125.401 281.734 125.712 281.589 125.885 C 281.443 126.075 281.315 126.506 281.315 126.834 C 281.315 127.352 281.479 127.577 282.372 128.371 C 282.937 128.889 283.575 129.372 283.776 129.441 C 284.469 129.717 285.599 129.614 287.13 129.113 Z  M 245.973 110.14 C 246.629 109.743 248.124 108.068 248.415 107.412 C 248.561 107.136 248.707 106.394 248.78 105.772 C 248.871 104.788 248.834 104.598 248.506 104.184 C 248.288 103.925 247.85 103.58 247.54 103.441 C 246.921 103.131 244.587 102.699 243.512 102.682 C 242.51 102.682 241.307 103.269 240.833 104.011 C 240.049 105.22 240.76 107.568 242.418 109.139 C 243.785 110.433 244.988 110.779 245.973 110.14 Z  M 293.637 93.704 C 293.764 93.584 294.421 93.584 295.496 93.67 C 296.808 93.774 297.264 93.756 297.665 93.549 C 297.938 93.428 298.285 93.29 298.449 93.29 C 298.996 93.238 300.618 92.651 300.818 92.392 C 300.946 92.272 301.146 92.151 301.256 92.151 C 301.547 92.151 303.552 90.252 303.552 89.975 C 303.552 89.872 303.68 89.734 303.826 89.665 C 303.972 89.613 304.099 89.457 304.099 89.319 C 304.099 89.199 304.209 89.043 304.354 88.991 C 304.5 88.94 304.865 88.37 305.193 87.714 C 305.521 87.075 305.849 86.402 305.94 86.246 C 306.031 86.074 306.104 85.711 306.104 85.435 C 306.104 85.159 306.214 84.675 306.359 84.365 C 306.487 84.037 306.615 83.139 306.633 82.379 C 306.669 81.119 306.615 80.912 306.25 80.497 C 305.74 79.945 304.682 79.531 303.552 79.444 C 303.097 79.41 302.167 79.341 301.456 79.306 C 300.764 79.254 299.725 79.151 299.178 79.064 C 298.121 78.892 289.517 78.926 288.424 79.099 C 288.078 79.168 287.458 79.237 287.057 79.289 C 284.323 79.565 283.32 80.083 283.174 81.274 C 283.083 82.051 283.174 83.743 283.32 83.916 C 283.338 83.933 283.375 84.106 283.411 84.295 C 283.448 84.485 283.575 84.952 283.685 85.331 C 283.794 85.711 283.976 86.333 284.068 86.695 C 284.232 87.334 285.927 89.768 286.947 90.839 C 287.531 91.426 289.481 92.669 289.864 92.669 C 290.028 92.669 290.319 92.789 290.502 92.928 C 290.702 93.066 291.03 93.187 291.249 93.187 C 291.468 93.187 291.705 93.238 291.778 93.307 C 291.923 93.445 292.944 93.825 293.272 93.86 C 293.363 93.86 293.546 93.791 293.637 93.704 Z  M 326.464 83.674 C 327.849 83.415 331.331 80.964 331.367 80.204 C 331.385 80.014 331.659 79.617 331.987 79.289 C 332.315 78.978 332.534 78.65 332.479 78.564 C 332.406 78.477 332.497 78.011 332.643 77.545 C 333.044 76.354 332.88 73.402 332.37 72.176 C 331.896 71.054 331.221 70.07 330.602 69.621 C 330.346 69.431 329.8 68.982 329.417 68.637 C 329.016 68.274 328.597 67.981 328.505 67.981 C 328.396 67.981 328.05 67.877 327.74 67.739 C 326.737 67.325 326.446 67.239 325.79 67.169 C 323.475 66.928 320.777 67.256 320.048 67.86 C 319.811 68.067 319.118 68.585 318.517 68.999 C 317.897 69.414 317.405 69.863 317.405 69.984 C 317.405 70.122 317.332 70.225 317.241 70.225 C 316.712 70.225 315.127 73.592 315.327 74.317 C 315.4 74.541 315.364 74.921 315.254 75.197 C 314.981 75.94 315.528 78.219 316.348 79.79 C 316.931 80.86 318.645 82.362 320.066 83.018 C 322.162 83.967 323.821 84.14 326.464 83.674 Z  M 264.182 83.191 C 266.77 81.861 267.864 80.843 268.866 78.892 C 269.468 77.701 269.522 77.424 269.595 75.819 C 269.65 73.972 269.504 73.264 268.684 71.606 C 268.192 70.571 266.114 68.654 264.984 68.171 C 264.492 67.964 263.945 67.705 263.744 67.618 C 263.343 67.394 261.065 66.928 260.901 67.031 C 260.828 67.066 259.971 67.221 258.969 67.394 C 257.984 67.549 257.037 67.791 256.873 67.912 C 256.727 68.05 256.508 68.154 256.399 68.154 C 256.289 68.154 255.67 68.637 255.013 69.241 C 253.865 70.277 253.045 71.33 252.844 72.038 C 252.771 72.228 252.553 72.815 252.352 73.333 C 251.897 74.455 251.86 75.663 252.261 77.234 C 252.699 79.03 254.23 81.533 255.159 81.93 C 255.414 82.034 255.615 82.207 255.615 82.293 C 255.615 82.448 257.675 83.45 258.531 83.709 C 258.786 83.778 259.898 83.829 260.992 83.829 C 262.924 83.812 263.033 83.778 264.182 83.191 Z  M 248.925 58.313 C 250.402 57.795 250.876 57.294 250.876 56.328 C 250.876 55.257 250.584 54.791 249.017 53.375 C 247.431 51.96 245.882 51.252 243.968 51.131 C 241.762 50.958 240.906 51.839 241.088 54.083 C 241.215 55.827 242.254 57.277 243.931 58.14 C 245.189 58.762 247.431 58.848 248.925 58.313 Z  M 325.152 50.613 C 325.48 50.475 325.972 50.043 326.227 49.664 C 326.628 49.111 326.701 48.8 326.701 47.799 C 326.701 47.143 326.628 46.556 326.537 46.504 C 326.446 46.453 326.318 46.211 326.263 45.952 C 326.191 45.71 325.862 45.279 325.516 45.002 C 325.17 44.709 324.842 44.329 324.787 44.139 C 324.678 43.846 324.568 43.811 323.894 43.897 C 323.311 43.984 323.074 43.949 322.891 43.742 C 322.381 43.172 321.324 43.069 319.848 43.466 C 318.079 43.915 317.478 44.225 317.15 44.812 C 316.749 45.555 316.913 46.694 317.533 47.316 C 319.137 48.973 320.504 49.854 322.563 50.544 C 323.748 50.941 324.386 50.958 325.152 50.613 Z  M 264.984 43.742 C 266.697 43.31 267.28 42.793 267.28 41.653 C 267.28 41.17 267.39 40.928 267.736 40.669 C 268.155 40.358 268.192 40.22 268.192 38.977 C 268.192 37.976 268.119 37.579 267.9 37.406 C 267.736 37.285 267.371 36.75 267.098 36.198 C 266.15 34.454 264.692 33.643 262.231 33.522 C 260.773 33.453 260.737 33.47 259.68 34.126 C 258.185 35.093 257.912 35.593 258.057 37.147 C 258.24 38.994 258.458 39.564 259.406 40.6 C 260.336 41.636 263.343 43.984 263.744 43.984 C 263.872 43.984 264.437 43.88 264.984 43.742 Z " fill="rgb(151,125,73)"/><path d=" M 292.744 90.338 C 292.47 90.096 292.033 89.906 291.796 89.906 C 290.939 89.906 288.551 87.852 287.95 86.626 C 287.786 86.298 287.531 85.901 287.385 85.728 C 287.239 85.573 287.093 85.262 287.057 85.038 C 287.02 84.831 286.911 84.347 286.82 84.002 C 286.656 83.432 286.674 83.363 287.039 83.294 C 287.403 83.225 287.403 83.225 287.02 83.191 C 285.836 83.122 287.294 82.586 289.171 82.379 C 289.846 82.31 290.247 82.345 290.319 82.465 C 290.411 82.586 291.377 82.655 293.09 82.655 C 294.548 82.655 295.696 82.724 295.642 82.811 C 295.587 82.88 295.168 83.052 294.712 83.173 C 294.275 83.294 293.801 83.501 293.691 83.622 C 293.382 83.985 294.257 85.245 295.387 86.108 C 295.915 86.505 296.535 87.04 296.772 87.317 C 297.118 87.748 297.155 87.869 296.954 88.249 C 296.772 88.646 296.808 88.75 297.173 89.129 C 297.41 89.371 297.574 89.578 297.519 89.613 C 297.483 89.647 297.1 89.803 296.663 89.993 C 296.243 90.165 295.806 90.407 295.696 90.545 C 295.569 90.683 295.095 90.77 294.366 90.77 C 293.455 90.752 293.163 90.683 292.744 90.338 Z  M 288.369 83.242 C 288.314 83.191 288.15 83.173 288.023 83.225 C 287.877 83.277 287.932 83.329 288.132 83.329 C 288.333 83.346 288.442 83.294 288.369 83.242 Z  M 289.846 83.052 C 289.663 83.018 289.335 83.018 289.116 83.052 C 288.88 83.087 289.025 83.122 289.426 83.122 C 289.827 83.139 290.01 83.104 289.846 83.052 Z " fill="rgb(151,125,73)"/><path d=" M 286.838 82.535 C 286.911 82.483 287.02 82.483 287.093 82.535 C 287.148 82.604 287.093 82.655 286.966 82.655 C 286.838 82.655 286.783 82.604 286.838 82.535 Z " fill="rgb(151,125,73)"/></g><g><path d=" M 263.945 176.693 C 263.726 176.607 262.924 176.555 262.177 176.555 C 259.698 176.538 258.44 176.486 258.203 176.348 C 258.076 176.262 257.675 176.21 257.292 176.244 C 256.927 176.262 256.49 176.227 256.344 176.175 C 256.198 176.141 254.922 175.968 253.519 175.795 C 250.347 175.433 246.775 174.829 243.676 174.121 C 242.382 173.827 241.179 173.568 241.033 173.551 C 240.869 173.551 240.669 173.482 240.577 173.43 C 240.468 173.378 240.031 173.24 239.575 173.119 C 237.442 172.602 231.701 170.288 230.097 169.304 C 224.975 166.179 224.1 165.523 221.257 162.744 C 219.325 160.845 217.283 158.307 216.171 156.477 C 215.479 155.32 214.057 152.627 214.057 152.489 C 214.057 152.437 213.856 151.971 213.619 151.487 C 212.453 149.105 211.213 143.632 210.776 138.867 C 210.575 136.692 210.503 130.166 210.667 130.011 C 210.721 129.942 210.776 129.51 210.776 129.027 C 210.776 127.594 211.45 122.38 212.143 118.53 C 213.036 113.541 214.002 109.449 215.624 103.89 C 215.77 103.372 215.989 102.63 216.098 102.25 C 216.208 101.87 216.408 101.232 216.536 100.835 C 216.682 100.437 216.955 99.54 217.137 98.849 C 217.338 98.159 217.921 96.277 218.431 94.671 C 218.924 93.066 219.343 91.581 219.343 91.374 C 219.343 91.184 219.416 90.942 219.507 90.856 C 219.689 90.649 221.165 85.97 221.165 85.59 C 221.165 85.435 221.238 85.245 221.33 85.159 C 221.402 85.055 221.566 84.675 221.676 84.295 C 221.785 83.916 222.004 83.173 222.168 82.655 C 222.332 82.137 222.533 81.481 222.624 81.188 C 222.842 80.428 224.173 76.354 225.03 73.764 C 225.449 72.539 225.795 71.382 225.813 71.227 C 225.832 71.054 225.886 70.864 225.959 70.812 C 226.032 70.743 226.087 70.519 226.087 70.312 C 226.087 70.122 226.16 69.88 226.251 69.794 C 226.342 69.69 226.67 68.93 226.98 68.067 C 227.272 67.221 227.818 65.823 228.183 64.96 C 228.529 64.114 228.821 63.268 228.821 63.112 C 228.821 62.957 228.894 62.784 228.985 62.733 C 229.076 62.681 229.331 62.18 229.55 61.645 C 229.787 61.093 230.206 60.143 230.498 59.521 C 230.808 58.9 231.373 57.709 231.774 56.846 C 233.214 53.773 233.979 52.374 235.838 49.526 C 239.083 44.553 243.676 39.72 248.105 36.595 C 249.327 35.714 250.365 35.006 250.402 35.006 C 250.438 35.006 251.204 34.575 252.079 34.04 C 256.143 31.623 262.086 29.585 268.101 28.532 C 269.012 28.377 269.869 28.204 270.014 28.153 C 270.16 28.101 270.507 28.066 270.78 28.083 C 271.053 28.101 271.381 28.066 271.509 27.997 C 271.637 27.911 272.074 27.842 272.475 27.825 C 272.876 27.807 273.733 27.755 274.389 27.704 C 280.112 27.203 286.437 27.272 292.889 27.876 C 293.4 27.928 294.092 27.98 294.457 28.014 C 294.822 28.032 295.223 28.101 295.332 28.17 C 295.441 28.239 295.769 28.273 296.043 28.256 C 296.316 28.239 296.663 28.273 296.808 28.325 C 296.954 28.377 298.157 28.584 299.451 28.791 C 303.443 29.43 309.44 30.984 312.484 32.158 C 314.27 32.848 317.751 34.488 318.626 35.041 C 319.046 35.3 319.428 35.524 319.501 35.524 C 319.611 35.524 323.201 38.062 324.277 38.908 C 326.154 40.358 329.599 44.312 331.112 46.746 C 331.768 47.834 332.424 49.163 333.263 51.148 C 333.591 51.891 335.213 59.694 336.361 65.909 C 336.781 68.136 337.273 70.829 337.455 71.865 C 337.655 72.918 338.111 75.318 338.457 77.217 C 339.879 84.865 340.699 88.473 342.668 96.035 C 344.381 102.578 344.564 103.303 345.092 105.53 C 345.548 107.412 347.134 115.198 347.207 115.803 C 347.407 117.84 347.535 118.841 347.626 118.979 C 347.662 119.048 347.717 119.445 347.735 119.842 C 347.808 121.379 348.245 126.61 348.337 126.852 C 348.519 127.283 348.537 132.894 348.373 134.448 C 348.173 136.554 347.79 140.663 347.735 141.267 C 347.717 141.561 347.662 141.906 347.608 142.044 C 347.553 142.182 347.462 142.614 347.389 142.994 C 347.152 144.426 345.803 149.364 345.439 150.141 C 345.22 150.572 345.001 151.09 344.91 151.28 C 344.618 152.023 342.668 155.786 342.467 156.028 C 342.34 156.166 342.03 156.667 341.757 157.133 C 340.663 159.015 337.437 162.433 334.903 164.367 C 333.791 165.212 330.766 167.25 330.602 167.25 C 330.529 167.25 330.255 167.44 329.945 167.681 C 329.654 167.923 329.271 168.113 329.125 168.113 C 328.961 168.113 328.305 168.372 327.631 168.7 C 325.917 169.529 324.04 170.357 323.858 170.357 C 323.766 170.357 323.056 170.582 322.308 170.858 C 320.376 171.566 316.111 172.688 313.395 173.189 C 308.802 174.052 300.745 175.088 295.624 175.45 C 294.822 175.519 294.038 175.605 293.892 175.657 C 293.746 175.709 293.236 175.744 292.762 175.726 C 292.288 175.692 291.796 175.744 291.668 175.813 C 291.559 175.882 291.03 175.916 290.502 175.899 C 289.973 175.882 289.499 175.933 289.445 176.037 C 289.372 176.141 288.952 176.175 288.424 176.106 C 287.932 176.054 287.385 176.072 287.203 176.141 C 287.02 176.227 286.346 176.296 285.69 176.331 C 285.034 176.348 283.812 176.417 282.956 176.451 C 279 176.659 276.394 176.728 270.598 176.779 C 267.153 176.814 264.163 176.762 263.945 176.693 Z  M 304.774 169.995 C 306.177 169.442 306.487 169.27 306.815 168.821 C 307.271 168.234 307.581 166.956 307.435 166.386 C 307.289 165.765 305.521 163.624 304.281 162.537 C 302.623 161.086 301.948 160.81 299.98 160.793 C 298.668 160.776 298.23 160.845 297.975 161.052 C 297.774 161.207 297.446 161.397 297.246 161.449 C 296.079 161.777 295.769 163.054 295.861 167.042 C 295.897 168.665 295.933 168.803 296.262 168.803 C 296.444 168.803 296.699 168.959 296.808 169.149 C 296.918 169.339 297.118 169.494 297.246 169.494 C 297.373 169.494 297.629 169.649 297.811 169.839 C 298.121 170.15 298.376 170.185 301.201 170.185 C 303.079 170.185 304.464 170.115 304.774 169.995 Z  M 225.267 157.772 C 226.032 157.478 226.743 156.77 227.308 155.769 C 227.709 155.061 227.8 154.664 227.8 153.594 C 227.818 152.437 227.764 152.213 227.308 151.557 C 225.595 149.105 221.803 147.258 218.869 147.43 C 217.028 147.534 216.025 148.57 216.007 150.348 C 216.007 150.849 216.499 151.971 216.791 152.144 C 216.991 152.264 217.556 153.387 217.866 154.336 C 217.994 154.699 218.249 155.027 218.431 155.078 C 218.632 155.13 219.124 155.441 219.525 155.734 C 221.129 156.943 221.421 157.133 222.405 157.582 C 223.48 158.082 224.301 158.134 225.267 157.772 Z  M 344.527 135.035 C 345.11 134.879 345.694 134.62 345.84 134.448 C 345.985 134.275 346.295 134.051 346.532 133.947 C 346.842 133.792 346.933 133.602 346.933 133.015 C 346.933 132.618 346.842 132.014 346.751 131.686 C 346.642 131.358 346.496 130.632 346.386 130.063 C 346.222 129.13 346.131 128.975 345.165 128.146 C 344.582 127.628 343.616 126.783 343.014 126.247 C 340.207 123.744 337.601 123.692 335.979 126.126 C 334.994 127.594 334.83 129.113 335.468 130.719 C 335.906 131.858 336.853 132.704 338.457 133.377 C 339.041 133.636 340.189 134.172 341.009 134.569 C 342.632 135.38 343.051 135.432 344.527 135.035 Z  M 286.656 129.269 C 287.221 129.079 287.822 128.923 287.968 128.923 C 288.46 128.923 289.153 128.129 289.153 127.559 C 289.153 127.283 289.244 126.99 289.353 126.921 C 289.463 126.869 289.499 126.627 289.445 126.403 C 289.372 126.161 289.408 125.833 289.517 125.643 C 289.809 125.142 289.554 124.072 289.135 123.968 C 288.934 123.917 288.788 123.796 288.788 123.692 C 288.788 123.364 287.859 122.363 287.312 122.104 C 286.802 121.845 285.908 121.862 285.143 122.138 C 284.997 122.208 284.505 122.38 284.049 122.536 C 283.466 122.725 283.138 122.967 282.919 123.381 C 282.755 123.675 282.409 124.176 282.154 124.469 C 281.899 124.78 281.68 125.16 281.68 125.315 C 281.68 125.488 281.607 125.678 281.498 125.729 C 281.406 125.781 281.315 126.247 281.315 126.748 C 281.315 127.611 281.352 127.698 282.008 128.146 C 282.372 128.423 282.846 128.82 283.047 129.027 C 283.667 129.7 285.088 129.786 286.656 129.269 Z  M 246.191 110.019 C 247.012 109.484 248.251 107.93 248.616 106.963 C 249.017 105.893 248.944 104.598 248.452 104.028 C 247.777 103.252 246.501 102.837 244.478 102.734 C 242.455 102.613 241.78 102.82 240.978 103.718 C 240.322 104.443 240.249 104.771 240.468 105.91 C 240.833 107.706 241.726 108.966 243.384 109.95 C 244.423 110.589 245.28 110.606 246.191 110.019 Z  M 294.184 93.722 C 294.275 93.635 294.949 93.618 295.788 93.704 C 296.59 93.774 297.373 93.774 297.519 93.687 C 297.683 93.618 298.358 93.394 299.032 93.187 C 299.706 92.979 300.454 92.669 300.709 92.479 C 300.946 92.306 301.201 92.151 301.274 92.151 C 301.784 92.151 303.498 90.372 304.865 88.439 C 305.466 87.593 306.086 86.246 306.286 85.331 C 306.378 84.952 306.523 84.33 306.633 83.95 C 307.143 82.12 306.706 80.256 305.703 79.979 C 305.466 79.91 305.011 79.755 304.682 79.617 C 304.318 79.444 303.88 79.392 303.534 79.462 C 303.206 79.531 302.878 79.496 302.714 79.375 C 302.55 79.22 302.112 79.185 301.475 79.254 C 300.928 79.306 300.417 79.272 300.308 79.168 C 300.217 79.082 299.287 78.995 298.248 78.978 C 297.209 78.961 296.28 78.892 296.17 78.84 C 295.879 78.685 291.541 78.65 291.286 78.806 C 291.085 78.926 290.338 78.978 288.296 79.013 C 287.968 79.03 287.677 79.099 287.622 79.185 C 287.567 79.254 287.312 79.289 287.075 79.254 C 286.656 79.168 285.289 79.479 283.995 79.945 C 283.484 80.118 283.029 80.808 283.229 81.102 C 283.284 81.188 283.247 81.292 283.138 81.361 C 282.901 81.499 282.901 82.949 283.138 83.087 C 283.247 83.156 283.284 83.329 283.229 83.501 C 283.101 83.881 284.122 87.23 284.541 87.8 C 284.724 88.025 285.052 88.473 285.289 88.767 C 285.507 89.06 285.89 89.578 286.127 89.906 C 286.929 91.029 288.442 92.133 290.155 92.859 C 290.666 93.083 291.158 93.273 291.249 93.273 C 291.45 93.307 291.96 93.48 292.525 93.704 C 293.017 93.912 293.965 93.912 294.184 93.722 Z  M 326.792 83.588 C 328.487 83.139 331.258 81.119 331.513 80.152 C 331.586 79.893 331.859 79.479 332.114 79.237 C 332.734 78.65 332.989 77.321 332.971 75.059 C 332.953 73.609 332.862 73.246 332.333 72.038 C 331.823 70.864 331.531 70.467 330.365 69.414 C 329.617 68.723 328.742 68.084 328.433 67.981 C 328.123 67.877 327.539 67.653 327.157 67.463 C 326.756 67.273 326.282 67.169 326.045 67.221 C 325.826 67.273 325.589 67.239 325.534 67.135 C 325.225 66.652 320.212 67.29 320.048 67.826 C 319.993 67.981 319.683 68.223 319.355 68.343 C 318.462 68.706 316.403 70.812 316.038 71.744 C 315.874 72.193 315.601 72.815 315.455 73.126 C 315.309 73.454 315.236 73.885 315.291 74.11 C 315.345 74.334 315.309 74.576 315.2 74.645 C 314.726 74.921 315.418 78.253 316.257 79.79 C 316.785 80.756 318.863 82.604 319.848 83.001 C 320.358 83.208 320.941 83.432 321.142 83.519 C 322.363 84.037 324.988 84.071 326.792 83.588 Z  M 264.072 83.346 C 264.473 83.087 265.129 82.742 265.494 82.569 C 266.332 82.207 267.973 80.705 268.301 79.997 C 268.447 79.703 268.629 79.341 268.72 79.203 C 269.322 78.27 269.723 76.647 269.705 75.404 C 269.668 74.438 269.468 73.108 269.34 72.936 C 269.249 72.815 269.067 72.418 268.957 72.021 C 268.83 71.641 268.574 71.175 268.374 71.002 C 268.173 70.829 268.009 70.605 268.009 70.484 C 268.009 70.156 265.859 68.464 264.874 68.033 C 264.382 67.808 263.38 67.463 262.687 67.273 L 261.411 66.911 L 259.169 67.308 C 257.164 67.653 256.8 67.791 255.87 68.412 C 254.485 69.31 253.191 70.847 252.753 72.09 C 252.024 74.092 251.969 74.334 251.969 75.335 C 251.969 76.613 252.334 77.994 253.081 79.479 C 253.646 80.635 254.922 82.137 255.341 82.137 C 255.469 82.137 255.633 82.258 255.688 82.414 C 255.797 82.69 257.729 83.588 258.531 83.743 C 258.786 83.795 259.953 83.829 261.156 83.829 C 263.216 83.829 263.343 83.795 264.072 83.346 Z  M 248.998 58.278 C 250.402 57.795 251.058 57.122 251.058 56.172 C 251.058 55.326 250.785 54.929 249.327 53.531 C 247.978 52.253 247.431 51.908 246.082 51.425 C 244.897 51.01 242.819 50.924 242.036 51.269 C 241.288 51.597 240.796 52.806 240.887 54.083 C 240.942 54.67 241.124 55.395 241.307 55.723 C 241.835 56.707 243.421 58.037 244.423 58.348 C 245.736 58.762 247.723 58.745 248.998 58.278 Z  M 326.027 50.009 C 326.683 49.336 326.701 49.284 326.701 48.058 C 326.701 46.453 326.464 45.779 325.589 44.968 C 325.188 44.605 324.878 44.191 324.878 44.036 C 324.878 43.811 324.751 43.794 324.131 43.88 C 323.566 43.966 323.292 43.915 322.946 43.656 C 322.071 43 320.303 43.086 318.262 43.897 C 317.059 44.364 316.494 45.486 316.949 46.504 C 317.442 47.626 319.811 49.577 321.324 50.13 C 324.222 51.166 324.878 51.148 326.027 50.009 Z  M 265.312 43.725 C 266.934 43.276 267.28 42.913 267.28 41.584 C 267.28 41.049 267.371 40.893 267.736 40.738 C 268.173 40.548 268.192 40.479 268.192 38.977 C 268.192 37.734 268.137 37.389 267.918 37.32 C 267.754 37.251 267.426 36.802 267.189 36.318 C 266.952 35.835 266.497 35.179 266.187 34.886 C 265.549 34.281 264.291 33.643 263.507 33.539 C 263.234 33.504 262.997 33.47 262.997 33.453 C 262.997 33.435 262.596 33.401 262.086 33.384 C 260.919 33.332 259.844 33.781 258.768 34.747 L 257.93 35.507 L 258.039 36.854 C 258.203 39.236 258.44 39.754 259.88 41.135 C 261.703 42.879 263.617 44.208 264.091 44.07 C 264.291 44.001 264.838 43.846 265.312 43.725 Z " fill="rgb(179,142,71)"/><path d=" M 286.783 83.035 C 286.783 82.811 287.33 82.69 288.934 82.552 C 289.827 82.465 290.247 82.5 290.247 82.621 C 290.247 82.914 290.083 82.949 288.387 83.087 C 287.33 83.173 286.783 83.156 286.783 83.035 Z " fill="rgb(179,142,71)"/></g></g></g></g><g style="isolation:isolate"><g style="mix-blend-mode:normal;" opacity="0.87"><g transform="matrix(1,0,0,1,-120.5,219.969)"><text transform="matrix(1,0,0,1,141.797,32.844)" style="font-family:'Chewy';font-weight:400;font-size:32px;font-style:normal;fill:#000000;stroke:#000000;stroke-width:1;">The requested page could not be found !!!</text></g></g><g transform="matrix(1,0,0,1,-15,-22.969)"><text transform="matrix(1,0,0,1,19.6,199)" style="font-family:'Chango';font-weight:400;font-size:200px;font-style:normal;fill:#282828;stroke:none;">4</text></g><g transform="matrix(1,0,0,1,346,-22.969)"><text transform="matrix(1,0,0,1,19.6,199)" style="font-family:'Chango';font-weight:400;font-size:200px;font-style:normal;fill:#282828;stroke:none;">4</text></g></g></g></svg>